<?xml version="1.0" encoding="UTF-8"?>
<svg id="Layer_1" data-name="Layer 1" xmlns="http://www.w3.org/2000/svg" viewBox="0 0 10.53 4.57">
  <defs>
    <style>
      .cls-1 {
        fill: #e6e6e6;
      }

      .cls-1, .cls-2, .cls-3, .cls-4, .cls-5 {
        stroke: #000;
        stroke-miterlimit: 10;
        stroke-width: .05px;
      }

      .cls-2 {
        fill: none;
      }

      .cls-6, .cls-7 {
        isolation: isolate;
      }

      .cls-3 {
        fill: #4d4d4d;
      }

      .cls-7 {
        fill: #fff;
        font-family: Kefa-Bold, Kefa;
        font-size: 3.3px;
        font-weight: 700;
      }

      .cls-4 {
        fill: #ccc;
      }

      .cls-5 {
        fill: #fbb03b;
      }
    </style>
  </defs>
  <g>
    <path class="cls-5" d="M5.34,1.02s.05-.18.25-.21c0,0,.08-.17.27-.15,0,0,.13-.18.29-.08,0,0,.14-.18.26-.03,0,0,.21-.12.28.03,0,0,.36-.09.43.11,0,0,.32,0,.36.17,0,0,.3.04.34.24,0,0,.23.06.22.26,0,0,.21.04.17.24,0,0,.18.12.1.26,0,0,.09.08.02.18,0,0,.09.06.03.15,0,0,.13.13,0,.26,0,0,.08.11-.03.2,0,0,.08.13-.05.26,0,0,.07.14-.15.28,0,0,.04.19-.1.25,0,0-.14.26-.3.28,0,0-.09.19-.29.18,0,0-.05.14-.26.11,0,0-.02.1-.24.1,0,0-.05.08-.24.02,0,0-.15.07-.31,0,0,0-.16.06-.26-.05,0,0-.18.03-.3-.12,0,0-.19.01-.26-.19,0,0-.16.03-.27-.18,0,0-.17-.03-.23-.32,0,0-.14-.05-.15-.23,0,0-.16-.12-.11-.27,0,0-.1-.1-.03-.27,0,0-.12-.11,0-.26,0,0-.06-.12.03-.25,0,0-.13-.18.02-.33,0,0-.02-.21.16-.25,0,0-.02-.14.14-.21,0,0,.05-.18.17-.18h.02Z"/>
    <path class="cls-2" d="M8.38,2.17c-2.37.72-3.02-1.11-3.02-1.11v-.04"/>
    <path class="cls-2" d="M8.38,2.43s-2.37.66-3.21-1.23"/>
    <path class="cls-2" d="M5.03,1.41s.8,1.88,3.33,1.22"/>
    <path class="cls-2" d="M4.87,1.65s.93,1.77,3.43,1.23"/>
    <path class="cls-2" d="M4.85,1.98s1,1.59,3.31,1.19"/>
    <path class="cls-2" d="M6.71.56s-.81.43-1.01,1.06"/>
    <path class="cls-2" d="M7.14.67s-.78.11-1.34,1.05"/>
    <path class="cls-2" d="M7.49.84s-.95,0-1.57,1"/>
    <path class="cls-2" d="M7.83,1.08s-1.04-.21-1.73.89"/>
    <path class="cls-2" d="M8.05,1.35s-1.32-.23-1.73.76c0,0,.45-.83,1.9-.51"/>
    <path class="cls-2" d="M8.32,1.85s-.8-.4-1.95.29"/>
    <path class="cls-2" d="M8.35,2.02s-.66-.22-1.75.2"/>
    <path class="cls-2" d="M8.32,2.19s-.75-.06-1.16.14"/>
    <path class="cls-2" d="M6.42.54s-.09.12-.13.3"/>
    <path class="cls-2" d="M6.16.57s-.14.25-.15.54"/>
    <path class="cls-2" d="M5.87.65s-.17.45-.06.73"/>
    <path class="cls-2" d="M5.6.8s-.03.45.03.72"/>
    <path class="cls-2" d="M4.81,2.23s.04-.09.11-.14"/>
    <path class="cls-2" d="M4.82,2.48s.06-.17.22-.26"/>
    <path class="cls-2" d="M4.84,2.76s.11-.38.29-.43"/>
    <path class="cls-2" d="M4.95,3.03s.05-.47.29-.6"/>
    <path class="cls-2" d="M5.1,3.26s.05-.36.31-.69"/>
    <path class="cls-2" d="M5.33,3.59s0-.48.25-.89"/>
    <path class="cls-2" d="M5.61,3.76s-.11-.57.1-.98"/>
    <path class="cls-2" d="M5.87,3.95s-.14-.58,0-1.09"/>
    <path class="cls-2" d="M7.9,3.62s-.38-.06-.76-.39"/>
    <path class="cls-2" d="M7.76,3.7s-.33.08-1.01-.53"/>
    <path class="cls-2" d="M7.47,3.88s-.88-.38-1.21-.84"/>
    <path class="cls-2" d="M7.22,3.99s-1.25-.62-1.31-1.1"/>
    <path class="cls-2" d="M6.97,4.09s-.25-.25-.29-.41"/>
    <path class="cls-2" d="M6.74,4.11s-.22-.18-.19-.52"/>
    <path class="cls-2" d="M6.17,4.06s-.22-.55-.12-.89"/>
    <path class="cls-5" d="M7.65,3.23c.11.13.41.19.41.19,0,.02-.14.18-.14.18.09,0,.09.08.09.08v.24s0,.26.23.26.34-.12.47-.27.11-.54.11-.54c0,0,0-.17-.02-.44s.05-.41.05-.41c.11-.34.45-.35.45-.35.23-.03.41.27.41.27.2.24.4.21.4.21.26.02.38-.23.38-.23.06-.23,0-.36,0-.36-.09-.28-.21-.27-.21-.27-.16-.01-.08.11-.08.11.1.1.12.22.12.22.07.28-.13.34-.13.34-.21.08-.4-.21-.4-.21-.17-.24-.38-.25-.38-.25-.36-.04-.54.16-.54.16,0,0-.13.12-.21.37s-.03.65-.03.84-.03.3-.03.3c-.1.3-.32.31-.32.31-.14-.01-.09-.15-.09-.3s-.11-.23-.11-.23l-.03-.02"/>
    <path class="cls-2" d="M6.43,4.12s-.22-.37-.12-.69"/>
  </g>
  <g>
    <path class="cls-3" d="M1.89.29s-.08-.1,0-.2C1.88.09,1.96,0,2.06.03s.12.12.12.12c0,0,.02.09-.07.15s-.17.03-.22-.02Z"/>
    <path class="cls-4" d="M1,3.12l-.08.25s-.12.39-.14.45-.13.42-.13.42c-.04.11,0,.1,0,.1,0,0,.01.04.08-.15s.32-.93.32-.93l.09-.25"/>
    <path class="cls-1" d="M3.23.94l-.27.25-.38.34-.34.33-.49.45-.28.27-.34.32-.28.26-.22.21-.2.19-.23.21-.14.13s-.03.04-.03.04c0,.05.06,0,.06,0l1.05-.93,1.19-1.07,1-.89s-.09-.06-.1-.11"/>
    <path class="cls-3" d="M3.24.98s.06.09.15.08.13-.06.13-.06c0,0,.06-.06.03-.15s-.06-.09-.13-.1-.15.06-.15.06c0,0-.07.07-.02.18h0Z"/>
    <path class="cls-4" d="M1.2,2.81l.2-.6.31-.89.34-.99s-.1.02-.16-.05l-.39,1.28-.36,1.12-.1.29"/>
  </g>
  <g class="cls-6">
    <text class="cls-7" transform="translate(1.23 3.83) scale(1.04 1)"><tspan x="0" y="0">E</tspan></text>
    <text class="cls-7" transform="translate(3.29 3.83) scale(1.04 1)"><tspan x="0" y="0">G</tspan></text>
  </g>
</svg>